<?xml version="1.0" encoding="UTF-8" standalone="no"?>
<!DOCTYPE svg PUBLIC "-//W3C//DTD SVG 1.1//EN" "http://www.w3.org/Graphics/SVG/1.1/DTD/svg11.dtd">
<svg width="100%" height="100%" viewBox="0 0 503 151" version="1.1" xmlns="http://www.w3.org/2000/svg" xmlns:xlink="http://www.w3.org/1999/xlink" xml:space="preserve" xmlns:serif="http://www.serif.com/" style="fill-rule:evenodd;clip-rule:evenodd;stroke-linejoin:round;stroke-miterlimit:2;">
    <g id="Artboard1" transform="matrix(0.83101,0,0,0.496899,-47.3551,-179.744)">
        <rect x="56.985" y="361.731" width="605.054" height="302.352" style="fill:none;"/>
        <g transform="matrix(1.20335,0,0,2.01248,-240.304,-167.83)">
            <g transform="matrix(-0.286997,0,0,0.274786,643.607,101.151)">
                <path d="M927.761,840.171C927.761,840.171 974.111,829.334 994.312,825.547C1004.12,823.709 1012.92,825.281 1021.48,827.974C1029.89,830.62 1034.59,833.245 1038.12,839.108C1038.39,839.548 1038.67,840.015 1038.95,840.514C1052.1,863.74 1068.83,914.863 1061.77,937.374C1056.26,954.964 936.843,883.53 936.843,883.53C940.554,892.124 942.409,900.718 942.409,909.312C942.409,926.304 938.356,944.273 930.251,963.218C922.145,982.163 908.815,1001.5 890.261,1021.23C905.69,1016.93 919.753,1014.78 932.448,1014.78C948.659,1014.78 966.921,1017.22 987.233,1022.11C1020.83,1030.11 1043.58,1034.12 1055.5,1034.12C1069.95,1034.12 1088.7,1028.65 1111.75,1017.71L1128.74,1066.05C1110.77,1073.67 1096.85,1078.65 1086.99,1080.99C1077.13,1083.34 1067.31,1084.51 1057.55,1084.51C1049.34,1084.51 1041.04,1083.73 1032.64,1082.16C1027.37,1081.19 1014.72,1077.62 994.704,1071.47C974.684,1065.32 961.745,1061.65 955.886,1060.48C946.706,1058.92 937.526,1058.14 928.346,1058.14C914.284,1058.14 899.294,1060.58 883.376,1065.46C867.458,1070.35 852.956,1076.99 839.87,1085.39L819.655,1034.7C838.405,1024.35 854.323,1009.56 867.409,990.318C880.495,971.079 887.038,947.593 887.038,919.859C887.038,907.945 885.378,895.835 882.057,883.53L869.753,840.171C863.307,818.296 859.206,802.329 857.448,792.271C855.69,782.212 854.811,772.398 854.811,762.827C854.811,722.202 869.85,690.464 899.929,667.612C924.147,649.448 953.444,640.366 987.819,640.366C1023.17,640.366 1052.32,650.083 1075.27,669.517C1098.22,688.95 1112.33,716.245 1117.6,751.402L1065.16,759.312C1062.23,735.874 1053.49,717.417 1038.94,703.941C1024.39,690.464 1006.96,683.726 986.647,683.726C964.968,683.726 946.95,690.708 932.595,704.673C918.239,718.638 911.061,735.484 911.061,755.21C911.061,776.89 916.628,805.21 927.761,840.171Z" style="fill:white;fill-rule:nonzero;stroke:black;stroke-width:33.22px;"/>
            </g>
            <g transform="matrix(0.286997,0,0,0.274786,17.8414,101.151)">
                <path d="M927.761,840.171C927.761,840.171 974.111,829.334 994.312,825.547C1004.12,823.709 1012.92,825.281 1021.48,827.974C1029.89,830.62 1034.59,833.245 1038.12,839.108C1038.39,839.548 1038.67,840.015 1038.95,840.514C1052.1,863.74 1068.83,914.863 1061.77,937.374C1056.26,954.964 936.843,883.53 936.843,883.53C940.554,892.124 942.409,900.718 942.409,909.312C942.409,926.304 938.356,944.273 930.251,963.218C922.145,982.163 908.815,1001.5 890.261,1021.23C905.69,1016.93 919.753,1014.78 932.448,1014.78C948.659,1014.78 966.921,1017.22 987.233,1022.11C1020.83,1030.11 1043.58,1034.12 1055.5,1034.12C1069.95,1034.12 1088.7,1028.65 1111.75,1017.71L1128.74,1066.05C1110.77,1073.67 1096.85,1078.65 1086.99,1080.99C1077.13,1083.34 1067.31,1084.51 1057.55,1084.51C1049.34,1084.51 1041.04,1083.73 1032.64,1082.16C1027.37,1081.19 1014.72,1077.62 994.704,1071.47C974.684,1065.32 961.745,1061.65 955.886,1060.48C946.706,1058.92 937.526,1058.14 928.346,1058.14C914.284,1058.14 899.294,1060.58 883.376,1065.46C867.458,1070.35 852.956,1076.99 839.87,1085.39L819.655,1034.7C838.405,1024.35 854.323,1009.56 867.409,990.318C880.495,971.079 887.038,947.593 887.038,919.859C887.038,907.945 885.378,895.835 882.057,883.53L869.753,840.171C863.307,818.296 859.206,802.329 857.448,792.271C855.69,782.212 854.811,772.398 854.811,762.827C854.811,722.202 869.85,690.464 899.929,667.612C924.147,649.448 953.444,640.366 987.819,640.366C1023.17,640.366 1052.32,650.083 1075.27,669.517C1098.22,688.95 1112.33,716.245 1117.6,751.402L1065.16,759.312C1062.23,735.874 1053.49,717.417 1038.94,703.941C1024.39,690.464 1006.96,683.726 986.647,683.726C964.968,683.726 946.95,690.708 932.595,704.673C918.239,718.638 911.061,735.484 911.061,755.21C911.061,776.89 916.628,805.21 927.761,840.171Z" style="fill:rgb(128,128,128);fill-rule:nonzero;stroke:black;stroke-width:33.22px;"/>
            </g>
        </g>
        <g transform="matrix(1.20335,0,0,2.01248,55.1663,418.778)">
            <g transform="matrix(72,0,0,72,393.912,101.859)">
            </g>
            <text x="200.482px" y="101.859px" style="font-family:'GillSans', 'Gill Sans', sans-serif;font-size:72px;fill:rgb(204,204,204);">mouse</text>
        </g>
        <g transform="matrix(1.20335,0,0,2.01248,77.9602,-633.12)">
            <text x="160.405px" y="588.879px" style="font-family:'GillSans', 'Gill Sans', sans-serif;font-size:72px;">companies</text>
        </g>
    </g>
</svg>
